<svg width="114" height="21" viewBox="0 0 114 21" fill="none" xmlns="http://www.w3.org/2000/svg">
<path d="M7.5 21H6H4.5H3H1.5H0V19.5V18V16.5V15V13.5V12V10.5V9V7.5V6V4.5V3V1.5V0H1.5H3H4.5H6H7.5H9V1.5H10.5V3H12V4.5V6V7.5H10.5V9H9V10.5H10.5V12H12V13.5V15V16.5V18H10.5V19.5H9V21H7.5ZM6 19.5H7.5V18H9V16.5V15V13.5V12H7.5V10.5H6H4.5H3V12V13.5V15V16.5V18V19.5H4.5H6ZM6 9H7.5V7.5H9V6V4.5V3H7.5V1.5H6H4.5H3V3V4.5V6V7.5V9H4.5H6ZM21 21H19.5H18H16.5V19.5H15V18H13.5V16.5V15V13.5V12V10.5V9V7.5V6V4.5V3V1.5V0H15H16.5V1.5V3V4.5V6V7.5V9V10.5V12V13.5V15V16.5V18H18V19.5H19.5H21V18H22.5V16.5V15V13.5V12V10.5V9V7.5V6V4.5V3V1.5V0H24H25.5V1.5V3V4.5V6V7.5V9V10.5V12V13.5V15V16.5V18H24V19.5H22.5V21H21ZM33 21H31.5V19.5V18V16.5V15V13.5V12H30V10.5H28.5V9V7.5H27V6V4.5V3V1.5V0H28.5H30V1.5V3V4.5V6V7.5H31.5V9H33H34.5V7.5H36V6V4.5V3V1.5V0H37.5H39V1.5V3V4.5V6V7.5H37.5V9V10.5H36V12H34.5V13.5V15V16.5V18V19.5V21H33ZM54 21H52.5V19.5V18V16.5V15V13.5V12V10.5V9V7.5V6V4.5V3V1.5H51H49.5H48V0H49.5H51H52.5H54H55.5H57H58.5H60V1.5H58.5H57H55.5V3V4.5V6V7.5V9V10.5V12V13.5V15V16.5V18V19.5V21H54ZM69 21H67.5H66H64.5V19.5H63V18H61.5V16.5V15V13.5V12V10.5V9V7.5V6V4.5V3H63V1.5H64.5V0H66H67.5H69H70.5V1.5H72V3H73.5V4.5V6V7.5V9V10.5V12V13.5V15V16.5V18H72V19.5H70.5V21H69ZM67.5 19.5H69V18H70.5V16.5V15V13.5V12V10.5V9V7.5V6V4.5V3H69V1.5H67.5H66V3H64.5V4.5V6V7.5V9V10.5V12V13.5V15V16.5V18H66V19.5H67.5ZM85.5 21H84V19.5V18H82.5V16.5H81V15V13.5H79.5V12H78V13.5V15V16.5V18V19.5V21H76.5H75V19.5V18V16.5V15V13.5V12V10.5V9V7.5V6V4.5V3V1.5V0H76.5H78V1.5V3V4.5V6V7.5V9H79.5V7.5H81V6V4.5H82.5V3H84V1.5V0H85.5H87V1.5V3H85.5V4.5V6H84V7.5H82.5V9H81V10.5V12H82.5V13.5H84V15H85.5V16.5V18H87V19.5V21H85.5ZM99 19.5H100.5V21H99H97.5H96H94.5H93H91.5H90H88.5V19.5V18V16.5V15V13.5V12V10.5V9V7.5V6V4.5V3V1.5V0H90H91.5H93H94.5H96H97.5H99H100.5V1.5H99H97.5H96H94.5H93H91.5V3V4.5V6V7.5V9H93H94.5H96H97.5H99V10.5H97.5H96H94.5H93H91.5V12V13.5V15V16.5V18V19.5H93H94.5H96H97.5H99ZM112.5 21H111V19.5V18V16.5H109.5V15V13.5H108V12V10.5H106.5V9V7.5H105V9V10.5V12V13.5V15V16.5V18V19.5V21H103.5H102V19.5V18V16.5V15V13.5V12V10.5V9V7.5V6V4.5V3V1.5V0H103.5H105V1.5V3H106.5V4.5V6H108V7.5V9H109.5V10.5V12H111V10.5V9V7.5V6V4.5V3V1.5V0H112.5H114V1.5V3V4.5V6V7.5V9V10.5V12V13.5V15V16.5V18V19.5V21H112.5Z" fill="black"/>
</svg>
