<svg width="190" height="30" viewBox="0 0 190 30" fill="none" xmlns="http://www.w3.org/2000/svg">
<path d="M168.588 29.1179H166.529V27.059V25V22.9411V20.8822V18.8232H164.47H162.412H160.353H158.294V20.8822V22.9411V25V27.059V29.1179H156.235H154.176V27.059V25V22.9411V20.8822V18.8232V16.7643V14.7054V12.6464V10.5875V8.52857V6.46964V4.41071H156.235V2.35178H158.294V0.292847H160.353H162.412H164.47H166.529V2.35178H168.588V4.41071H170.647V6.46964V8.52857V10.5875V12.6464V14.7054V16.7643V18.8232V20.8822V22.9411V25V27.059V29.1179H168.588ZM164.47 16.7643H166.529V14.7054V12.6464V10.5875V8.52857V6.46964V4.41071H164.47V2.35178H162.412H160.353V4.41071H158.294V6.46964V8.52857V10.5875V12.6464V14.7054V16.7643H160.353H162.412H164.47Z" fill="white"/>
<path d="M187.059 27.059H189.118V29.1179H187.059H185H182.941H180.882H178.823H176.764H174.705H172.646V27.059H174.705H176.764H178.823V25V22.9411V20.8822V18.8232V16.7643V14.7054V12.6464V10.5875V8.52857V6.46964V4.41071V2.35178H176.764H174.705H172.646V0.292847H174.705H176.764H178.823H180.882H182.941H185H187.059H189.118V2.35178H187.059H185H182.941V4.41071V6.46964V8.52857V10.5875V12.6464V14.7054V16.7643V18.8232V20.8822V22.9411V25V27.059H185H187.059Z" fill="white"/>
<path d="M150.059 29.1177H148V27.0588V24.9999H150.059H152.118V27.0588V29.1177H150.059Z" fill="white"/>
<path d="M140.007 29.1179H137.948H135.889H133.831H131.772H129.713V27.059V25V22.9411V20.8822V18.8232V16.7643V14.7054V12.6464V10.5875V8.52857V6.46964V4.41071V2.35178V0.292847H131.772H133.831H135.889H137.948H140.007H142.066V2.35178H144.125V4.41071H146.184V6.46964V8.52857V10.5875H144.125V12.6464H142.066V14.7054H144.125V16.7643H146.184V18.8232V20.8822V22.9411V25H144.125V27.059H142.066V29.1179H140.007ZM137.948 27.059H140.007V25H142.066V22.9411V20.8822V18.8232V16.7643H140.007V14.7054H137.948H135.889H133.831V16.7643V18.8232V20.8822V22.9411V25V27.059H135.889H137.948ZM137.948 12.6464H140.007V10.5875H142.066V8.52857V6.46964V4.41071H140.007V2.35178H137.948H135.889H133.831V4.41071V6.46964V8.52857V10.5875V12.6464H135.889H137.948Z" fill="white"/>
<path d="M121.477 29.1179H119.418H117.359H115.3V27.059H113.241V25H111.182V22.9411V20.8822V18.8232V16.7643V14.7054V12.6464V10.5875V8.52857V6.46964V4.41071H113.241V2.35178H115.3V0.292847H117.359H119.418H121.477H123.536V2.35178H125.595V4.41071H127.654V6.46964V8.52857V10.5875V12.6464V14.7054V16.7643V18.8232V20.8822V22.9411V25H125.595V27.059H123.536V29.1179H121.477ZM119.418 27.059H121.477V25H123.536V22.9411V20.8822V18.8232V16.7643V14.7054V12.6464V10.5875V8.52857V6.46964V4.41071H121.477V2.35178H119.418H117.359V4.41071H115.3V6.46964V8.52857V10.5875V12.6464V14.7054V16.7643V18.8232V20.8822V22.9411V25H117.359V27.059H119.418Z" fill="white"/>
<path d="M107.064 29.1179H105.006V27.059V25V22.9411V20.8822V18.8232V16.7643V14.7054H102.947H100.888H98.8287H96.7698V16.7643V18.8232V20.8822V22.9411V25V27.059V29.1179H94.7108H92.6519V27.059V25V22.9411V20.8822V18.8232V16.7643V14.7054V12.6464V10.5875V8.52857V6.46964V4.41071V2.35178V0.292847H94.7108H96.7698V2.35178V4.41071V6.46964V8.52857V10.5875V12.6464H98.8287H100.888H102.947H105.006V10.5875V8.52857V6.46964V4.41071V2.35178V0.292847H107.064H109.123V2.35178V4.41071V6.46964V8.52857V10.5875V12.6464V14.7054V16.7643V18.8232V20.8822V22.9411V25V27.059V29.1179H107.064Z" fill="white"/>
<path d="M76.1805 29.1179H74.1215V27.059V25V22.9411V20.8822V18.8232V16.7643V14.7054V12.6464V10.5875V8.52857V6.46964V4.41071V2.35178V0.292847H76.1805H78.2394H80.2983H82.3572H84.4162H86.4751V2.35178H88.534V4.41071H90.593V6.46964V8.52857V10.5875V12.6464H88.534V14.7054H86.4751V16.7643H84.4162H82.3572H80.2983H78.2394V18.8232V20.8822V22.9411V25V27.059V29.1179H76.1805ZM82.3572 14.7054H84.4162V12.6464H86.4751V10.5875V8.52857V6.46964V4.41071H84.4162V2.35178H82.3572H80.2983H78.2394V4.41071V6.46964V8.52857V10.5875V12.6464V14.7054H80.2983H82.3572Z" fill="white"/>
<path d="M65.8858 29.1179H63.8269H61.768H59.709V27.059H57.6501V25H55.5912V22.9411V20.8822V18.8232V16.7643V14.7054V12.6464V10.5875V8.52857V6.46964V4.41071H57.6501V2.35178H59.709V0.292847H61.768H63.8269H65.8858H67.9447V2.35178H70.0037V4.41071H72.0626V6.46964V8.52857V10.5875V12.6464V14.7054V16.7643V18.8232V20.8822V22.9411V25H70.0037V27.059H67.9447V29.1179H65.8858ZM63.8269 27.059H65.8858V25H67.9447V22.9411V20.8822V18.8232V16.7643V14.7054V12.6464V10.5875V8.52857V6.46964V4.41071H65.8858V2.35178H63.8269H61.768V4.41071H59.709V6.46964V8.52857V10.5875V12.6464V14.7054V16.7643V18.8232V20.8822V22.9411V25H61.768V27.059H63.8269Z" fill="white"/>
<path d="M51.4733 29.1179H49.4143V27.059V25V22.9411V20.8822V18.8232V16.7643V14.7054H47.3554V16.7643V18.8232V20.8822H45.2965H43.2376V18.8232V16.7643V14.7054H41.1786V16.7643V18.8232V20.8822V22.9411V25V27.059V29.1179H39.1197H37.0608V27.059V25V22.9411V20.8822V18.8232V16.7643V14.7054V12.6464V10.5875V8.52857V6.46964V4.41071V2.35178V0.292847H39.1197H41.1786V2.35178V4.41071V6.46964H43.2376V8.52857V10.5875V12.6464H45.2965H47.3554V10.5875V8.52857V6.46964H49.4143V4.41071V2.35178V0.292847H51.4733H53.5322V2.35178V4.41071V6.46964V8.52857V10.5875V12.6464V14.7054V16.7643V18.8232V20.8822V22.9411V25V27.059V29.1179H51.4733Z" fill="white"/>
<path d="M28.825 29.1179H26.7661H24.7072H22.6482V27.059H20.5893V25H18.5304V22.9411V20.8822V18.8232V16.7643V14.7054V12.6464V10.5875V8.52857V6.46964V4.41071H20.5893V2.35178H22.6482V0.292847H24.7072H26.7661H28.825H30.884V2.35178H32.9429V4.41071H35.0018V6.46964V8.52857V10.5875V12.6464V14.7054V16.7643V18.8232V20.8822V22.9411V25H32.9429V27.059H30.884V29.1179H28.825ZM26.7661 27.059H28.825V25H30.884V22.9411V20.8822V18.8232V16.7643V14.7054V12.6464V10.5875V8.52857V6.46964V4.41071H28.825V2.35178H26.7661H24.7072V4.41071H22.6482V6.46964V8.52857V10.5875V12.6464V14.7054V16.7643V18.8232V20.8822V22.9411V25H24.7072V27.059H26.7661Z" fill="white"/>
<path d="M14.4125 29.1179H12.3536V27.059V25V22.9411V20.8822V18.8232V16.7643V14.7054H10.2947H8.23573H6.17679H4.11786V16.7643V18.8232V20.8822V22.9411V25V27.059V29.1179H2.05893H0V27.059V25V22.9411V20.8822V18.8232V16.7643V14.7054V12.6464V10.5875V8.52857V6.46964V4.41071V2.35178V0.292847H2.05893H4.11786V2.35178V4.41071V6.46964V8.52857V10.5875V12.6464H6.17679H8.23573H10.2947H12.3536V10.5875V8.52857V6.46964V4.41071V2.35178V0.292847H14.4125H16.4715V2.35178V4.41071V6.46964V8.52857V10.5875V12.6464V14.7054V16.7643V18.8232V20.8822V22.9411V25V27.059V29.1179H14.4125Z" fill="white"/>
</svg>
